<?xml version="1.0" encoding="iso-8859-1"?>
<!-- Generator: Adobe Illustrator 18.1.1, SVG Export Plug-In . SVG Version: 6.00 Build 0)  -->
<!DOCTYPE svg PUBLIC "-//W3C//DTD SVG 1.1//EN" "http://www.w3.org/Graphics/SVG/1.1/DTD/svg11.dtd">
<svg version="1.1" id="Layer_1" xmlns="http://www.w3.org/2000/svg" xmlns:xlink="http://www.w3.org/1999/xlink" x="0px" y="0px"
	 viewBox="0 0 100 100" style="enable-background:new 0 0 100 100;" xml:space="preserve">
<g>
	<g id="twitter-icon">
		<path style="fill:#FFFFFF;" d="M81.128,30.689c-2.291,1.021-4.756,1.706-7.334,2.017c2.64-1.581,4.657-4.084,5.615-7.072
			c-2.465,1.469-5.204,2.528-8.105,3.1c-2.328-2.478-5.653-4.034-9.326-4.034c-8.242,0-14.306,7.695-12.438,15.688
			c-10.621-0.535-20.033-5.615-26.333-13.347c-3.349,5.74-1.731,13.248,3.959,17.058c-2.092-0.062-4.059-0.635-5.79-1.594
			c-0.137,5.914,4.096,11.455,10.247,12.687c-1.793,0.486-3.76,0.598-5.765,0.224c1.631,5.08,6.337,8.765,11.928,8.865
			c-5.379,4.196-12.14,6.076-18.913,5.279c5.653,3.623,12.364,5.74,19.573,5.74c23.719,0,37.116-20.033,36.306-37.987
			C77.255,35.507,79.409,33.254,81.128,30.689z"/>
	</g>
</g>
</svg>
